# xmcd
#
# Track frame offsets:
#  149
#  20784
#  42430
#  67334
#  77889
#  106303
#  136621
#  159371
#  180460
#  206173
#  233240
#  250427
#  276387
#  300211
#  324714
#  353589
#
# Disc length: 4718 seconds
#
# Revision: 1
# Processed by: cddbd v1.5.2PL0 Copyright (c) Steve Scherf et al.
# Submitted via: Collectorz.com_Music_Collector 6.11
#
DISCID=e5126d10
DTITLE=Various Artist - Manny Lehman - Bangin' 02
DYEAR=2004
DGENRE=Dance - House - Progressive House
TTITLE0=Arthur Baker feat. Astrid Williamson - 1000 Years (Andy Moore 12" Mix)
TTITLE1=Johnny Vicious feat. Aubrey - I'm Waiting
TTITLE2=The Roc Project feat. Tina Novak - Deja Vu (Guido Osorio Vocal Mix)
TTITLE3=Nine Live - The Voice
TTITLE4=K-Klass - Talk To Me (Kidstuff Sex Hammer Mix)
TTITLE5=Kristine W - Fly Again (Ralphi's Hydrate Club Mix)
TTITLE6=Murk - Believe (Rosabel Dub)
TTITLE7=Beat Hustlerz - Just About Have Enough (Chris Cox Hard Dub)
TTITLE8=Chicola and Vic - The Music's Got Me
TTITLE9=Seth Berman - Future Funk (D. Ramirez Turbo Funk Mix)
TTITLE10=Superchumbo - This Beat Is (Victor Calderone Tribal Mix)
TTITLE11=The Orange Factory - White Horse (Club Mix)
TTITLE12=Double Dee - Shining (The Scumfrog Remix)
TTITLE13=Kristine W - Save My Soul (Gabrial and Dresden Bootleg Mix)
TTITLE14=Murk - Time (The Scumfrog Remix)
TTITLE15=Data track
EXTD=
EXTT0=
EXTT1=
EXTT2=
EXTT3=
EXTT4=
EXTT5=
EXTT6=
EXTT7=
EXTT8=
EXTT9=
EXTT10=
EXTT11=
EXTT12=
EXTT13=
EXTT14=
EXTT15=
PLAYORDER=
